<?xml version="1.0" encoding="utf-8"?>
<!-- Generator: Adobe Illustrator 27.7.0, SVG Export Plug-In . SVG Version: 6.00 Build 0)  -->
<svg version="1.1" id="katman_1" xmlns="http://www.w3.org/2000/svg" xmlns:xlink="http://www.w3.org/1999/xlink" x="0px" y="0px"
	 viewBox="0 0 100 100" style="enable-background:new 0 0 100 100;" xml:space="preserve">
<style type="text/css">
	.st0{fill:#010101;}
	.st1{fill:#020202;}
</style>
<g>
	<path d="M49.8,10.9c4.6-0.1,8.7,1.2,12.5,3.6c5.2,3.4,8.5,8.2,9.9,14.2c0.6,2.4,0.5,4.9,0.3,7.5c-0.5,6.1-2.9,11.4-6.2,16.5
		c-2.5,3.9-5.6,7.3-9,10.4c-2.1,1.9-4.4,3.4-6.6,5.2c-0.6,0.5-1.1,0.4-1.5,0c-2.2-1.8-4.4-3.5-6.6-5.4c-3.8-3.1-6.8-6.9-9.4-11
		c-2.6-4-4.5-8.3-5.2-13c-0.3-1.8-0.6-3.6-0.6-5.4c0.1-5.2,1.7-9.9,5-14c3.5-4.4,8-7,13.4-8.2C47,11,48.4,11,49.8,10.9z M56.1,25
		C56.1,25,56.1,25,56.1,25c0.1-0.4,0.1-0.8,0.1-1.2c0-1.1-0.5-1.6-1.5-1.3c-0.3,0.1-0.6,0.4-0.9,0.6c-3.4,3.6-6.8,7.2-10.1,10.8
		c-1.8,1.9-3.6,3.8-5.4,5.8c-0.5,0.5-0.5,1.1,0.1,1.5c0.4,0.3,1,0.4,1.5,0.3c2.7-0.2,5.4-0.4,8.1-0.6c0.7-0.1,1.2,0.2,1.6,0.7
		c1.9,1.9,3.8,3.8,5.7,5.7c0.5,0.6,1.1,0.4,1.5,0.2c0.3-0.1,0.5-0.7,0.6-1.1c0-0.6-0.1-1.3-0.2-1.9c-0.1-2-0.1-4.1-0.2-6.1
		c-0.1-1.3-0.1-2.6-0.2-3.9C56.6,31.4,56.3,28.2,56.1,25z"/>
	<path d="M75.5,89c-0.9-5.3-1.8-10.4-2.7-15.6c0.5,0,0.8,0,1.2,0c6.2,0,12.4,0,18.6,0c0.8,0,1.2,0.2,1.5,1.1
		c1.5,4.2,3.2,8.4,4.8,12.5c0.5,1.3,0.1,2-1.3,2c-7.1,0-14.2,0-21.2,0C76.1,89.1,75.8,89,75.5,89z"/>
	<path d="M24.5,89c-7.5,0-14.8,0-22.2,0c-1.3,0-1.7-0.7-1.2-1.9c1.6-4.1,3.2-8.3,4.8-12.5c0.2-0.4,0.3-0.8,0.5-1.2
		c7,0,13.9,0,20.8,0C26.3,78.6,25.4,83.8,24.5,89z"/>
	<path d="M48.9,78.8c0,3.3,0,6.7,0,10.2c-7.3,0-14.6,0-22.1,0c0.2-1.1,0.3-2.1,0.5-3.2c0.4-2.3,0.8-4.6,1.2-6.9
		c0.3-1.7,0.5-3.3,0.9-5c0-0.2,0.4-0.5,0.6-0.5c2.8,0,5.5,0,8.3,0c0.3,0,0.7,0.4,0.9,0.7c1.2,1.7,2.8,2.6,4.7,3.3
		C45.4,77.9,47.1,78.3,48.9,78.8z"/>
	<path d="M70.5,73.4c0.9,5.3,1.8,10.4,2.7,15.6c-7.3,0-14.6,0-22,0c0-3.5,0-7,0-10.5c3-0.2,5.7-1,8.1-2.8c0.6-0.4,1.2-0.9,1.5-1.5
		c0.4-0.7,0.9-0.8,1.5-0.8C65.1,73.4,67.8,73.4,70.5,73.4z"/>
	<path d="M92.8,71.1c-6.9,0-13.7,0-20.4,0c-0.6-3.3-1.2-6.6-1.8-10c0.4,0,0.7,0,1.1,0c5.4,0,10.8,0,16.2,0c0.8,0,1.2,0.2,1.5,1
		C90.4,65.1,91.6,68.1,92.8,71.1z"/>
	<path d="M29.4,61.1c-0.6,3.4-1.2,6.7-1.8,10c-6.8,0-13.5,0-20.4,0c0.5-1.4,1-2.7,1.5-4c0.7-1.7,1.3-3.5,2-5.2
		c0.1-0.4,0.6-0.8,0.9-0.8C17.5,61.1,23.4,61.1,29.4,61.1z"/>
	<path d="M11.9,58.9c1-2.5,2.1-4.7,2.7-7.1c0.7-2.6,2.1-3.1,4.5-2.9c3,0.2,6,0.1,9,0c0.6,0,0.9,0.1,1.1,0.7c0.3,0.7,0.7,1.4,1.1,2
		c0.5,0.8,0.5,1.6,0.3,2.5c-0.3,1.6-0.6,3.2-0.9,4.8C23.8,58.9,17.9,58.9,11.9,58.9z"/>
	<path d="M88.1,58.9c-6,0-11.9,0-17.8,0c-0.4-2-0.8-4-1.1-6c0-0.2,0.1-0.5,0.2-0.8c0.2-0.4,0.6-0.8,0.8-1.3c0.5-1.8,1.7-2.1,3.5-2.1
		c3.2,0.1,6.3,0.1,9.5,0c0.9,0,1.4,0.4,1.7,1.2C85.8,52.9,86.9,55.9,88.1,58.9z"/>
	<path class="st0" d="M50.2,76.4c-2.9-0.1-5.5-0.6-7.7-2.1c-2.3-1.6-3.3-3.9-1.9-6.3c0.4-0.6,0.9-1.2,1.5-1.7
		c0.2-0.1,0.8,0.1,1.1,0.3c1.9,1.4,3.8,2.8,5.7,4.2c0.7,0.5,1.3,0.5,2,0c2-1.5,4-2.9,6-4.3c0.3-0.2,1-0.2,1.2,0
		c1.9,1.5,2.5,4.1,1,6.1c-1.8,2.3-4.3,3.2-7,3.6C51.5,76.2,50.7,76.3,50.2,76.4z"/>
	<path d="M70.1,71.1c-2.6,0-5.2,0-7.9,0c0.3-2.8-0.7-5-2.9-6.7c1-1,2-2.1,3.1-3.1c0.2-0.2,0.5-0.2,0.8-0.2c1.5,0,3,0,4.5,0
		c0.6,0,0.8,0.2,0.9,0.8c0.4,2.6,0.9,5.1,1.3,7.7C69.9,70.1,70,70.6,70.1,71.1z"/>
	<path d="M37.8,71.1c-2.6,0-5.1,0-7.8,0c0.2-1.2,0.4-2.3,0.6-3.4c0.3-1.8,0.7-3.7,0.9-5.5c0.1-0.7,0.3-1.3,1.2-1.1c0.3,0,0.7,0,1,0
		c4.2,0,4.2,0,7,3.3C38.6,66.1,37.5,68.3,37.8,71.1z"/>
	<path class="st1" d="M35.5,59c-1.2,0-2,0-2.9,0c-0.2,0-0.5-0.3-0.5-0.4c0.1-1,0.4-2.1,0.6-3.3C33.7,56.5,34.5,57.7,35.5,59z"/>
	<path class="st1" d="M67.3,55.2c0.2,1.3,0.4,2.3,0.6,3.5c-1.1,0-2.1,0-3.2,0C65.6,57.6,66.4,56.5,67.3,55.2z"/>
</g>
</svg>
