<?xml version="1.0" encoding="utf-8"?>
<!-- Generator: Adobe Illustrator 27.7.0, SVG Export Plug-In . SVG Version: 6.00 Build 0)  -->
<svg version="1.1" id="katman_1" xmlns="http://www.w3.org/2000/svg" xmlns:xlink="http://www.w3.org/1999/xlink" x="0px" y="0px"
	 viewBox="0 0 100 100" style="enable-background:new 0 0 100 100;" xml:space="preserve">
<g>
	<path d="M28,1.2c5.5,0,11,0,16.5,0c3,0,5.5,0.9,7.7,3.1C66.7,19,81.3,33.5,95.8,48.1c3.9,3.9,3.9,9.6,0,13.6
		C84.5,73.1,73.1,84.4,61.7,95.8c-4,4-9.7,4-13.8,0c-14.7-14.7-29.4-29.4-44.1-44c-1.8-1.8-2.7-4-2.6-6.6c0.1-11.4,0.1-22.8,0-34.2
		C1.2,6.6,4.8,2,9,1.5c1.1-0.1,2.2-0.3,3.2-0.3C17.5,1.2,22.7,1.2,28,1.2z M18.2,25.5c3.7,0.4,7.6-3.2,7.3-7.5
		c-0.2-3.5-2.6-7.4-8.4-6.9c-3.1,0.2-6.3,3.1-6.2,7.4C11,22.2,14.3,25.9,18.2,25.5z"/>
</g>
</svg>
