<?xml version="1.0" encoding="utf-8"?>
<!-- Generator: Adobe Illustrator 27.7.0, SVG Export Plug-In . SVG Version: 6.00 Build 0)  -->
<svg version="1.1" id="katman_1" xmlns="http://www.w3.org/2000/svg" xmlns:xlink="http://www.w3.org/1999/xlink" x="0px" y="0px"
	 viewBox="0 0 100 100" style="enable-background:new 0 0 100 100;" xml:space="preserve">
<g>
	<path d="M22.3,100c-4.8,0.4-9.7-1-14.4-3.4c-3-1.5-4.8-3.9-5.9-7c-1-2.8-1.7-5.6-1.8-8.6c-0.1-2.4-0.3-4.8-0.2-7.2
		c0.2-4,1-7.9,2.7-11.6c1.7-3.6,4.6-5.7,8.3-6.9c3.3-1,6.6-1.7,10.1-1.6c3.1,0.1,6.1,0.1,9.2,0.5c4.1,0.6,8.2,1.6,11.2,4.8
		c2.1,2.2,3.2,5,3.8,7.9c0.5,2.4,0.7,4.9,0.9,7.3c0.5,5.1-0.3,10-1.8,14.9c-1.3,4.4-4.4,6.8-8.2,8.5c-2.7,1.2-5.7,1.9-8.6,2.3
		C26,100.2,24.5,100,22.3,100z"/>
	<path d="M22.8,46.2c-4.8,0.5-9.5-0.7-14-2.8c-4.1-1.9-6.3-5.2-7.5-9.4C0,29.4-0.4,24.8-0.1,20.1c0.4-5,1.2-9.9,4.3-14.2
		c1.6-2.1,3.8-3.3,6.2-4.1c2.6-0.9,5.2-1.6,7.9-1.6c2.3,0,4.7-0.3,7-0.2c4.9,0.3,9.7,1,13.9,3.6c2.3,1.4,3.8,3.5,4.7,6
		c1,2.6,1.7,5.2,1.8,8c0.1,2.1,0.5,4.1,0.4,6.2c-0.2,4.3-0.7,8.6-2.3,12.7c-1.4,3.6-4.2,5.7-7.5,7.2C32.2,45.8,27.7,46.5,22.8,46.2z
		"/>
	<path d="M76.5,100.1c-4.8,0.3-9.3-0.9-13.6-2.8c-4.5-2-6.8-5.6-8-10.2c-0.7-2.8-1-5.5-1.2-8.4c-0.3-5.1,0.4-10.1,2.1-14.9
		c1.4-3.8,3.9-6.5,7.8-8c3.9-1.4,7.8-2,11.9-2c4.4,0,8.7,0.3,13,1.6c5.3,1.5,8.7,4.9,10.1,10.2c0.5,2.1,0.9,4.3,1.1,6.4
		c0.2,2.6,0.4,5.3,0.2,7.9c-0.4,4.8-1.1,9.6-4.1,13.6c-0.8,1-1.9,1.8-3,2.5c-3.4,2.2-7.1,3.5-11.2,3.8C79.9,100,78.2,100,76.5,100.1
		z"/>
	<g>
		<path d="M76.1,1.3L76.1,1.3c1,0,2.1,0,3.2,0.1c4.6,0.3,8.2,1.1,11.4,2.5c2.8,1.2,4.7,3.3,5.9,6.4c1.1,2.8,1.7,5.4,1.8,8
			c0,0.7,0.1,1.4,0.1,2.1c0.1,2,0.2,3.9,0.1,5.8c-0.3,4.7-1.2,8.4-3,11.6c-0.8,1.5-2.1,2.7-4,3.7c-3.3,1.8-6.1,2.8-8.8,3.1
			c-1.4,0.2-2.8,0.2-4.2,0.3c-0.7,0-1.3,0.1-1.9,0.1c-0.5,0-0.9,0-1.4,0c-2.6,0-5.7-0.2-8.6-1.4l-0.5-0.2c-2.2-1-4.5-1.9-6.3-3.3
			c-1.2-0.9-2.1-2.8-2.8-4.4c-1.1-2.5-1.7-5.2-1.8-8c0-0.7-0.1-1.5-0.1-2.2c-0.1-1.6-0.2-3.1-0.1-4.6c0.3-4.4,0.9-9.4,3.8-13.7
			c1.7-2.5,4.3-3.6,6.9-4.4C69,1.8,72.3,1.3,76.1,1.3 M76.1-0.1c-3.6,0-7.1,0.4-10.6,1.5c-3,0.9-5.8,2.2-7.7,4.9
			c-3,4.3-3.7,9.3-4.1,14.4c-0.2,2.3,0.1,4.6,0.2,6.9c0.1,3,0.7,5.8,1.9,8.5c0.8,1.8,1.7,3.8,3.2,5c2.1,1.6,4.6,2.7,7.1,3.7
			c2.9,1.3,6,1.5,9.2,1.5c0.5,0,0.9,0,1.4,0c2.1-0.1,4.2-0.1,6.2-0.4c3.3-0.4,6.4-1.6,9.3-3.2c1.9-1,3.5-2.3,4.5-4.3
			c2.1-3.8,2.9-7.9,3.1-12.2c0.2-2.7-0.1-5.4-0.2-8.1c-0.1-2.9-0.8-5.7-1.9-8.4c-1.3-3.3-3.4-5.7-6.6-7.2C87.4,0.9,83.4,0.2,79.3,0
			C78.3-0.1,77.2-0.1,76.1-0.1L76.1-0.1z"/>
	</g>
</g>
</svg>
