<?xml version="1.0" encoding="utf-8"?>
<!-- Generator: Adobe Illustrator 27.7.0, SVG Export Plug-In . SVG Version: 6.00 Build 0)  -->
<svg version="1.1" id="katman_1" xmlns="http://www.w3.org/2000/svg" xmlns:xlink="http://www.w3.org/1999/xlink" x="0px" y="0px"
	 viewBox="0 0 100 100" style="enable-background:new 0 0 100 100;" xml:space="preserve">
<style type="text/css">
	.st0{fill:#FEFEFE;}
</style>
<g>
	<path d="M3.9,12.9c0.3-0.9,0.5-1.9,0.9-2.7c1.7-4,4.7-6.4,9-7C14.7,3.1,15.7,3,16.6,3c12.5,0,25.1,0,37.6,0c3.6,0,6.8,1.1,9.3,3.9
		c1.6,1.7,2.7,3.7,2.8,6c0.2,1.9,0.3,3.9,0.2,5.8c-0.1,2.9-3.3,4.9-5.8,3.4c-1.1-0.7-1.9-1.6-1.9-3c0-1.3-0.1-2.5,0-3.8
		c0.1-2.6-1.8-4.6-4.4-4.4c-1.1,0.1-2.3,0-3.3,0.4c-1.5,0.6-2.3,1.8-2.2,3.5c0.1,2-2,3.9-3.7,3.9c-6.6,0-13.2,0-19.9,0
		c-2,0-3.8-1.7-3.8-3.8c0-2.3-1.6-4.1-4.1-4c-1,0-2.1,0.1-3.1,0.2c-1.3,0.2-2.6,1.9-2.5,3.2c0,0.3,0,0.7,0,1c0,23.2,0,46.3,0,69.5
		c0,1.4,0.2,2.6,1.3,3.5c0.6,0.4,1.4,0.7,2.1,0.9c0.4,0.1,0.9,0.1,1.3,0.1c12.6,0,25.2-0.1,37.8,0c2.9,0,4.8-2,4.7-4.7
		c-0.1-1.2,0-2.4,0-3.6c0.1-2,1.6-3.3,3.6-3.4c2.6-0.2,4.4,2.1,4.2,4.3c-0.1,2.1-0.1,4.3-0.4,6.3c-0.8,4.5-5,8.1-9.5,8.8
		c-0.1,0-0.1,0.1-0.2,0.2c-14.2,0-28.4,0-42.7,0c-0.1-0.1-0.1-0.2-0.2-0.2c-4.3-0.8-7.2-3.2-8.9-7.1c-0.4-0.8-0.6-1.8-0.9-2.6
		C3.9,62.5,3.9,37.7,3.9,12.9z"/>
	<path class="st0" d="M3.9,87.2c0.3,0.9,0.5,1.8,0.9,2.6c1.7,3.9,4.6,6.4,8.9,7.1c0.1,0,0.1,0.1,0.2,0.2c-3.3,0-6.6,0-9.9,0
		C3.9,93.8,3.9,90.5,3.9,87.2z"/>
	<path d="M98,50.1c0,4.2,0,8.4,0,12.6c0,0.6-0.1,1.1-0.3,1.7c-0.7,2.8-2.6,4.5-5.4,5.2c-0.6,0.1-1.2,0.1-1.8,0.1
		c-13.4,0-26.7,0-40.1,0c-3.8,0-6.3-2.2-7.1-5c-0.2-0.7-0.2-1.4-0.2-2.1c0-3.9,0-7.8,0-11.7c0-0.3,0-0.5,0-0.9
		C61.4,50.1,79.7,50.1,98,50.1z"/>
	<path d="M98,42.2c-18.4,0-36.6,0-55,0c0.3-2.9-0.7-5.9,1.1-8.6c1.5-2.2,3.6-3.2,6.2-3.2c13.4,0,26.9,0,40.3,0
		c3.1,0,5.5,1.3,6.8,4.3c0.3,0.7,0.5,1.6,0.5,2.4C98,38.8,98,40.5,98,42.2z"/>
</g>
</svg>
