<?xml version="1.0" encoding="utf-8"?>
<!-- Generator: Adobe Illustrator 27.7.0, SVG Export Plug-In . SVG Version: 6.00 Build 0)  -->
<svg version="1.1" id="katman_1" xmlns="http://www.w3.org/2000/svg" xmlns:xlink="http://www.w3.org/1999/xlink" x="0px" y="0px"
	 viewBox="0 0 100 100" style="enable-background:new 0 0 100 100;" xml:space="preserve">
<g>
	<path d="M8.9,98.9c-1.5-0.8-2-2.1-1.9-3.8c0.1-3.6,0.7-7,1.7-10.4c1.2-4.1,3.1-7.7,5.6-11.1c2.1-2.8,4.5-5.5,7.4-7.5
		c2.1-1.4,4.2-2.9,6.4-4c3.2-1.6,6.6-2.7,10.2-3.2c5.8-0.9,11.6-0.5,17.4-0.5c4.1,0,8.2,0.6,12.2,2c4.1,1.5,7.7,3.5,11.1,6.2
		c3.1,2.4,5.6,5.2,7.8,8.4c2.5,3.7,4.3,7.7,5.3,12c0.6,2.6,1,5.2,1,7.9c0,1.3,0.1,2.5-1,3.4c-0.3,0.2-0.6,0.5-1,0.7
		C63.7,98.9,36.3,98.9,8.9,98.9z"/>
	<path d="M24.2,26.7c0-14.3,11.3-24.6,23.1-25.6c8.2-0.7,15.3,1.7,21.2,7.6c4.3,4.3,6.8,9.6,7.2,15.7c0.7,8.3-2,15.5-8.1,21.2
		c-4.5,4.3-10,6.6-16.3,6.9c-7.4,0.4-13.8-2.1-19.1-7.2C26.9,40.4,24.2,34.1,24.2,26.7z"/>
</g>
</svg>
