<?xml version="1.0" encoding="utf-8"?>
<!-- Generator: Adobe Illustrator 27.7.0, SVG Export Plug-In . SVG Version: 6.00 Build 0)  -->
<svg version="1.1" id="katman_1" xmlns="http://www.w3.org/2000/svg" xmlns:xlink="http://www.w3.org/1999/xlink" x="0px" y="0px"
	 viewBox="0 0 100 100" style="enable-background:new 0 0 100 100;" xml:space="preserve">
<g>
	<path d="M1,95.2c0.5-1,1.3-1.8,2.5-1.9c1.1-0.1,2.2,0,3.4,0c0-0.4,0-0.8,0-1.1c0-10.3,0-20.6,0-30.9c0-1.7,1-2.9,2.8-2.9
		c3.7,0,7.5-0.1,11.2,0c2.2,0.1,3.2,1.1,3.2,3.5c0,10.2,0,20.3,0,30.5c0,0.3,0,0.5,0,0.8c1.9,0,3.8,0,5.7,0c0-0.3,0-0.6,0-1
		c0-6.5,0-12.9,0-19.4c0-1.5,1-3,2.9-3c3.7,0,7.4-0.1,11.1,0c2.2,0.1,3.2,1.1,3.3,3.5c0,6.4,0,12.7,0,19.1c0,0.2,0,0.5,0,0.8
		c1.9,0,3.8,0,5.7,0c0-0.4,0-0.7,0-1c0-14.1,0-28.2,0-42.3c0-1.4,1-2.9,2.9-2.9c3.7,0,7.3-0.1,11,0c2.3,0,3.3,1.1,3.3,3.6
		c0,13.2,0,26.4,0,39.6c0,1,0,2,0,3.1c1.9,0,3.7,0,5.7,0c0-0.3,0-0.6,0-1c0-19.9,0-39.7,0-59.6c0-1.6,1-3,2.9-3
		c3.7,0,7.5-0.1,11.2,0c2.2,0.1,3.2,1.1,3.2,3.5c0,15.7,0,31.4,0,47c0,4.3,0,8.6,0,12.9c1.2,0.1,2.3,0.1,3.5,0.3
		c1.2,0.2,2.1,1,2.3,1.9c0.2,1.8-0.1,2.5-1.4,3.3c-0.4,0.2-0.9,0.4-1.3,0.4c-30.8,0-61.6,0-92.5,0c-1.4,0-2.1-0.9-2.7-1.9
		C1,96.5,1,95.9,1,95.2z"/>
	<path d="M85.9,0.9c1.1,0.5,2.2,0.8,3.2,1.4c2.3,1.4,3.6,3.6,3.9,6.3c0.3,2.6-0.5,4.9-2.3,6.8c-1.2,1.3-2.7,2.1-4.5,2.5
		c-2.1,0.4-4.1,0.1-6-0.9c-0.2-0.1-0.8-0.1-1,0.1c-3,2.2-5.9,4.4-8.8,6.6c-0.3,0.2-0.6,0.8-0.5,1.1c0.5,2.3,0.2,4.5-1,6.5
		c-1.3,2.1-3.2,3.3-5.6,3.9c-1.7,0.4-3.4,0.2-5.1-0.4c-0.2-0.1-0.6,0-0.8,0.1c-3.8,3.7-7.5,7.4-11.2,11.1c1.4,3.2,1.2,6.2-0.9,8.9
		c-2.3,3-5.4,4.1-9.1,3.2c-1-0.2-1.9-0.7-2.7-1.3c-0.8-0.6-1.6-1.4-2.1-2.3c-0.6-0.8-1-1.8-1.2-2.8c-0.3-1-0.2-2.1-0.3-3.1
		c-2.5-1.3-5.1-2.6-7.7-3.9c-0.5-0.3-0.9-0.3-1.4,0.2c-3.2,2.6-7.8,2.6-11-0.3c-1.5-1.3-2.5-3-2.8-4.8c-0.4-2.6,0.1-5,1.9-7.1
		c1.6-1.9,3.7-3,6.2-3.1c2-0.1,4,0.5,5.7,1.7c1.6,1.3,2.7,2.9,3.1,4.9c0.2,0.8,0.1,1.6,0.2,2.5c0,0.3,0.2,0.6,0.4,0.7
		c2.5,1.3,5.1,2.6,7.6,3.8c0.3,0.1,0.8,0,1-0.1c1.6-1.3,3.5-1.9,5.5-2c1,0,2,0.3,3,0.6c0.5,0.2,0.8,0.1,1.2-0.2
		c3.6-3.7,7.3-7.3,10.8-10.8c-0.2-1.4-0.5-2.6-0.6-3.8c-0.2-4,2.7-7.6,6.6-8.4c2-0.4,4-0.3,5.9,0.8c0.6,0.4,1.1,0.3,1.6-0.1
		c2.7-2,5.3-4,8-6c0.4-0.3,0.8-0.6,1.3-0.9c-1.4-4.4,1-9.2,5.3-10.6c0.4-0.1,0.8-0.4,1.2-0.6C83.9,0.9,84.9,0.9,85.9,0.9z"/>
</g>
</svg>
