<?xml version="1.0" encoding="utf-8"?>
<!-- Generator: Adobe Illustrator 27.7.0, SVG Export Plug-In . SVG Version: 6.00 Build 0)  -->
<svg version="1.1" id="katman_1" xmlns="http://www.w3.org/2000/svg" xmlns:xlink="http://www.w3.org/1999/xlink" x="0px" y="0px"
	 viewBox="0 0 100 100" style="enable-background:new 0 0 100 100;" xml:space="preserve">
<g>
	<path d="M11.6,11.9c-1.6,0-3.2,0-4.7,0c-3.8,0-6-4.2-4.2-7.4C3.7,2.8,5.1,2.1,7,2c2.8-0.1,5.6,0,8.4,0c3.5,0.1,5.2,2,5.6,5.2
		c0.3,2.8,0.8,5.6,1.2,8.5c0.3,2.2,0.6,4.4,0.8,6.6c0.1,0.9,0.3,1.9,0.4,2.9c0.4,0,0.8,0,1.3,0c23.1,0,46.3,0,69.4,0
		c1.9,0,3.2,0.7,3.7,2.1c0.4,1.1,0.1,2.2-0.2,3.3c-2.2,9-4.5,18.1-6.8,27.1c-0.8,3.2-1.6,6.3-2.5,9.5c-0.6,2.4-3.4,4.3-5.9,4.3
		c-19.5,0-38.9,0-58.4,0c-2.5,0-5-2.1-5.6-4.9c-0.4-2.1-0.6-4.2-0.9-6.3c-0.3-1.9-0.6-3.8-0.8-5.7c-0.2-1.3-0.3-2.7-0.4-4
		c-0.2-2-0.5-3.9-0.8-5.9c-0.2-1.3-0.3-2.6-0.5-3.9c-0.3-2-0.5-4-0.8-6c-0.2-1.9-0.4-3.8-0.7-5.7c-0.2-1.9-0.4-3.8-0.7-5.6
		c-0.2-1.4-0.4-2.7-0.6-4.1c-0.3-2-0.6-4.1-0.8-6.1C11.6,12.9,11.6,12.5,11.6,11.9z"/>
	<path d="M21.9,88c-0.1-5.7,4.5-9.9,9.6-9.9c6.1,0.1,10.1,4.1,10.1,10c0,5.4-4,9.4-9.3,9.8C26.6,98.4,21.6,93.2,21.9,88z"/>
	<path d="M71.4,98c-5.3,0.1-9.4-4.5-9.7-9c-0.5-6.7,4.6-10.8,9.6-10.8c6.4,0,10.2,4.5,10.2,10C81.3,93.9,76.8,98,71.4,98z"/>
</g>
</svg>
