<?xml version="1.0" encoding="utf-8"?>
<!-- Generator: Adobe Illustrator 27.7.0, SVG Export Plug-In . SVG Version: 6.00 Build 0)  -->
<svg version="1.1" id="katman_1" xmlns="http://www.w3.org/2000/svg" xmlns:xlink="http://www.w3.org/1999/xlink" x="0px" y="0px"
	 viewBox="0 0 100 100" style="enable-background:new 0 0 100 100;" xml:space="preserve">
<g>
	<path d="M0,55.3c0-7.5,0.1-15,0-22.6c0-2.5,1.2-3.6,2.9-4.3c2-0.9,3.9-1.7,5.9-2.6c4-1.8,7.9-3.6,11.9-5.4c2.7-1.3,5.5-2.5,8.2-3.8
		c4.1-1.9,8.3-3.8,12.4-5.7c1-0.5,2-0.3,3,0.1c2.3,1,4.6,2,6.9,3.1c0.8,0.4,1.1,0.2,1.5-0.6c2.5-5,6.3-8.8,11.4-11.2
		c2.8-1.3,5.7-2.1,8.8-2.3c4.7-0.3,9.2,0.4,13.4,2.6c6,3.1,10.2,7.9,12.4,14.3c0.7,2.1,0.8,4.3,1.2,6.5c0.4,2.9-0.1,5.7-0.9,8.5
		c-0.8,3-2.3,5.8-4.2,8.2c-2.2,2.8-4.9,5.1-8.1,6.7c-0.7,0.4-0.9,0.9-0.9,1.7c0,9.3,0,18.6,0,27.9c0,4.7-0.8,4.6-4.1,6.2
		c-2.8,1.4-5.8,2.6-8.6,3.9c-5.8,2.7-11.7,5.3-17.5,8c-3.8,1.7-7.5,3.4-11.3,5.1c-1.3,0.6-2.5,0.2-3.6-0.3
		c-6.2-2.9-12.5-5.7-18.7-8.5c-5.7-2.6-11.5-5.2-17.2-7.8c-1.2-0.6-2.4-1.2-3.6-2C0.3,80.4,0,79.5,0,78.5C0.1,70.7,0,63,0,55.3z
		 M7.2,37.7c0,7.7,0,15.3,0,22.9c0,4.9,0,9.9,0,14.8c0,0.6,0.1,1,0.8,1.3c2,0.9,4.1,1.8,6.1,2.7c6.9,3.1,13.8,6.3,20.8,9.4
		c1.5,0.7,3,1.4,4.5,2c0-0.2,0.1-0.2,0.1-0.2c0-12.6,0-25.2,0-37.8c0-0.3-0.3-0.7-0.5-0.8c-3.7-1.7-7.4-3.3-11.1-5
		c-5-2.2-9.9-4.5-14.9-6.8C11,39.4,9.1,38.6,7.2,37.7z M78.6,49.7c-0.3,0-0.5,0-0.7,0c-2.1,0-4.3,0.1-6.4,0
		c-3.6-0.3-6.8-1.6-9.8-3.5c-0.3-0.2-0.9-0.3-1.2-0.2c-0.7,0.2-1.3,0.5-2,0.8c-3.7,1.7-7.5,3.5-11.3,5.2c-0.6,0.3-0.8,0.5-0.8,1.1
		c0,12.6,0,25.2,0,37.9c10.8-4.9,21.5-9.8,32.1-14.6C78.6,67.4,78.6,58.6,78.6,49.7z M74.9,42.8c9.7,0,18-7.6,18-17.8
		c0-10-7.5-17.7-17.9-17.9c-9.3-0.2-18.7,7.5-17.8,19.6C57.9,34.8,65,42.8,74.9,42.8z M50.2,21.5c-2.2-1-4.5-2.1-6.8-3
		c-0.5-0.2-1.2,0-1.7,0.2c-4.3,1.9-8.5,3.8-12.7,5.8c-3.1,1.4-6.2,2.8-9.3,4.2c-2.4,1.1-4.8,2.2-7.3,3.4c0.4,0.3,0.7,0.5,0.9,0.6
		c4.2,1.9,8.5,3.8,12.7,5.7c5.4,2.4,10.8,4.9,16.1,7.3c0.4,0.2,0.9,0.2,1.2,0.1c0.9-0.3,1.7-0.8,2.5-1.2c3.1-1.4,6.2-2.8,9.4-4.3
		C51.1,34.8,49.4,28.6,50.2,21.5z"/>
	<path d="M78.7,28.5c0,2.3,0,4.5,0,6.7c0,1.7-0.7,3-2.4,3.8c-2.4,1.1-4.8-1.2-4.8-3c0-2.5,0-4.9,0-7.5c-0.9,0-1.8,0-2.6,0
		c-1.5,0-3,0-4.5,0c-2.1,0-3.6-1.5-3.6-3.5c0-2.1,1.5-3.6,3.7-3.6c2.3,0,4.6,0,7.1,0c0-2.5,0-4.9,0-7.3c0-1.3,1-2.7,2.3-3.1
		c2.3-0.7,4.8,0.7,4.8,3.7c0,2.2,0,4.5,0,6.8c2.2,0,4.4,0,6.7,0c1.4,0,2.7,0.5,3.5,1.8c0.7,1.1,0.7,2.3,0.1,3.4
		c-0.6,1.2-1.6,1.9-3,2C83.5,28.5,81.2,28.5,78.7,28.5z"/>
</g>
</svg>
