<?xml version="1.0" encoding="utf-8"?>
<!-- Generator: Adobe Illustrator 27.7.0, SVG Export Plug-In . SVG Version: 6.00 Build 0)  -->
<svg version="1.1" id="katman_1" xmlns="http://www.w3.org/2000/svg" xmlns:xlink="http://www.w3.org/1999/xlink" x="0px" y="0px"
	 viewBox="0 0 100 100" style="enable-background:new 0 0 100 100;" xml:space="preserve">
<g>
	<path d="M97.8,4.6c0,19.1,0,38.3,0,57.4c-0.1,0.1-0.3,0.2-0.4,0.4c-0.6,0.8-1.3,1.5-2.5,1.5c-18.7,0-37.4,0-56.1,0
		c-1.4,0-2.6-1.2-2.6-2.5c0-18.8,0-37.6,0-56.4c0-0.3,0.1-0.6,0.2-0.9C37,2.8,38,2.3,39.3,2.3c18.2,0,36.5,0,54.7,0
		C95.8,2.3,97.1,2.9,97.8,4.6z"/>
	<path d="M4.2,97.8c-1.5-0.8-1.9-2-1.9-3.7c0-18.2,0.1-36.4,0-54.6c0-2.2,1.5-3.4,3.3-3.3c2.7,0.1,5.3,0,8.1,0c0,0.4,0,0.7,0,1
		c0,13.6,0,27.2,0,40.8c0,3.5,2.7,7,5.9,7.9c0.7,0.2,1.4,0.4,2,0.4c13.9,0,27.7,0,41.6,0c0.2,0,0.4,0,0.5,0c0,3.1,0,6.2,0,9.3
		c0,1.1-1.1,1.5-1.8,2.1C42.6,97.8,23.4,97.8,4.2,97.8z"/>
	<path d="M30.7,19.3c0,0.4,0,0.8,0,1.1c0,13.8,0,27.6,0,41.4c0,1.7,0.7,3.2,1.8,4.5c1.8,2.2,4.2,3.2,7.1,3.2c13.4-0.1,26.7,0,40.1,0
		c0.3,0,0.7,0,1.1,0c0,0.2,0.1,0.5,0.1,0.7c0,2.5,0,4.9,0,7.4c0,2.1-1.2,3.3-3.3,3.3c-18.5,0-36.9,0-55.4,0c-1.3,0-2.2-0.6-2.7-1.8
		c-0.1-0.3-0.2-0.6-0.2-0.9c0-18.8,0-37.5,0-56.3c0-1.4,1.1-2.6,2.5-2.6C24.8,19.3,27.7,19.3,30.7,19.3z"/>
</g>
</svg>
