<?xml version="1.0" encoding="utf-8"?>
<!-- Generator: Adobe Illustrator 27.7.0, SVG Export Plug-In . SVG Version: 6.00 Build 0)  -->
<svg version="1.1" id="katman_1" xmlns="http://www.w3.org/2000/svg" xmlns:xlink="http://www.w3.org/1999/xlink" x="0px" y="0px"
	 viewBox="0 0 100 100" style="enable-background:new 0 0 100 100;" xml:space="preserve">
<style type="text/css">
	.st0{fill:#222222;}
	.st1{fill:#303030;}
</style>
<g>
	<path d="M70.5,1.2c0.9,0.5,1.8,0.9,2.5,1.5c1,0.9,1.5,2.1,1.5,3.5c0,1.5,0,2.9,0,4.4c-3.3,0-6.6,0-10.1,0c0.3-2.5-0.6-5.2,1.1-7.5
		c0.8-1.1,1.9-1.4,3.1-1.9C69.2,1.2,69.9,1.2,70.5,1.2z"/>
	<path d="M76.4,61.8c-0.1,4.2-0.1,8.4-0.2,12.5c0,1.9-0.2,3.9-0.4,5.8c-0.2,2-0.5,4-0.7,6c-0.2,1.7-0.5,3.5-0.8,5.2
		c-0.4,2.3-0.9,4.7-1.3,7c0,0.1,0,0.2,0,0.4c-7,0-13.9,0-21.1,0C58,87.2,62.1,75,62.5,61.8c0.1-0.1,0.1-0.1,0.2-0.2
		c4.5,0,9,0,13.5,0C76.3,61.7,76.3,61.8,76.4,61.8z"/>
	<path d="M47.7,55.9c0-3.1,0-6.2,0-9.3c14.5,0,29.1,0,43.7,0c0,3.1,0,6.2,0,9.3C76.9,55.9,62.3,55.9,47.7,55.9z"/>
	<path d="M82.2,61.7c3.1,0,6.2,0,9.5,0C91.3,68,91,74.3,90.7,80.5c-0.3,6.2-1.5,12.2-2.7,18.3c-3,0-6,0-9.2,0
		C81.7,86.6,82,74.2,82.2,61.7z"/>
	<path d="M56.7,61.8c-0.2,2.1-0.2,4.2-0.6,6.3c-0.5,3.2-1,6.5-1.9,9.6c-1.1,3.8-2.5,7.4-4,11.1c-1.4,3.4-3.1,6.7-4.7,10
		c-2.9,0-5.8,0-8.7,0C43.1,87.1,47,74.9,47.6,61.7c3.1,0,6.1,0,9,0C56.6,61.7,56.7,61.8,56.7,61.8z"/>
	<path d="M64.6,16.4c3.4,0,6.7,0,10.1,0c0,8.1,0,16.2,0,24.3c-3.3,0-6.7,0-10.1,0C64.6,32.6,64.6,24.5,64.6,16.4z"/>
	<path d="M8.5,71.2c1.8,0,3.7,0,5.5,0c0,1.9,0,3.8,0,5.7c-1.9,0-3.7,0-5.5,0c0-0.1-0.1-0.1-0.1-0.2c0-1.8,0-3.6,0-5.3
		C8.4,71.3,8.5,71.3,8.5,71.2z"/>
	<path d="M25.5,82.4c0-1.8,0-3.6,0-5.3c0-0.1,0.1-0.1,0.1-0.2c1.8,0,3.7,0,5.5,0c0,1.9,0,3.8,0,5.7c-1.9,0-3.7,0-5.5,0
		C25.6,82.5,25.6,82.5,25.5,82.4z"/>
	<path d="M14.1,93.9c0-1.8,0-3.6,0-5.3c0-0.1,0.1-0.1,0.1-0.2c1.8,0,3.7,0,5.5,0c0,1.9,0,3.8,0,5.7c-1.9,0-3.7,0-5.5,0
		C14.2,94,14.1,93.9,14.1,93.9z"/>
	<path class="st0" d="M56.7,61.8c-0.1-0.1-0.1-0.1-0.2-0.2C56.6,61.7,56.7,61.8,56.7,61.8z"/>
	<path class="st0" d="M62.7,61.7c-0.1,0.1-0.1,0.1-0.2,0.2C62.6,61.8,62.6,61.7,62.7,61.7z"/>
	<path class="st0" d="M76.4,61.8c-0.1-0.1-0.1-0.1-0.2-0.2C76.3,61.7,76.3,61.8,76.4,61.8z"/>
	<path class="st1" d="M8.5,71.2c0,0.1-0.1,0.1-0.1,0.2C8.4,71.3,8.5,71.3,8.5,71.2z"/>
	<path class="st1" d="M8.4,76.7c0,0.1,0.1,0.1,0.1,0.2C8.5,76.8,8.4,76.8,8.4,76.7z"/>
	<path class="st1" d="M25.7,76.9c0,0.1-0.1,0.1-0.1,0.2C25.6,77.1,25.6,77,25.7,76.9z"/>
	<path class="st1" d="M25.5,82.4c0,0.1,0.1,0.1,0.1,0.2C25.6,82.5,25.6,82.5,25.5,82.4z"/>
	<path class="st1" d="M14.2,88.4c0,0.1-0.1,0.1-0.1,0.2C14.1,88.5,14.2,88.4,14.2,88.4z"/>
	<path class="st1" d="M14.1,93.9c0,0.1,0.1,0.1,0.1,0.2C14.2,94,14.1,93.9,14.1,93.9z"/>
</g>
</svg>
